<?xml version="1.0" encoding="UTF-8" standalone="no"?>
<!-- Created with Inkscape (http://www.inkscape.org/) -->

<svg
   xmlns:dc="http://purl.org/dc/elements/1.1/"
   xmlns:cc="http://creativecommons.org/ns#"
   xmlns:rdf="http://www.w3.org/1999/02/22-rdf-syntax-ns#"
   xmlns:svg="http://www.w3.org/2000/svg"
   xmlns="http://www.w3.org/2000/svg"
   xmlns:inkscape="http://www.inkscape.org/namespaces/inkscape"
   version="1.1"
   width="500"
   height="500"
   id="svg2"
   xml:space="preserve"><metadata
     id="metadata8"><rdf:RDF><cc:Work
         rdf:about=""><dc:format>image/svg+xml</dc:format><dc:type
           rdf:resource="http://purl.org/dc/dcmitype/StillImage" /></cc:Work></rdf:RDF></metadata><defs
     id="defs6"><clipPath
       id="clipPath16"><path
         d="M 0,400 400,400 400,0 0,0 0,400 z"
         inkscape:connector-curvature="0"
         id="path18" /></clipPath></defs><g
     transform="matrix(1.25,0,0,-1.25,0,500)"
     id="g10"><g
       id="g12"><g
         clip-path="url(#clipPath16)"
         id="g14"><g
           transform="translate(200,275.4336)"
           id="g20"><path
             d="m 0,0 c 50.153,0 90.824,-40.646 90.824,-90.8 0,-50.153 -40.671,-90.801 -90.824,-90.801 -50.153,0 -90.8,40.648 -90.8,90.801 C -90.8,-40.646 -50.153,0 0,0 m -12.891,62.731 -6.396,-36.433 0.025,-0.025 c -7.819,-1.277 -15.383,-3.325 -22.608,-6.051 l 0,0.024 L -65.609,48.61 -87.922,35.72 -75.253,0.984 -75.204,0.96 c -6.048,-4.966 -11.593,-10.529 -16.555,-16.581 l -0.025,0.074 -34.736,12.669 -12.891,-22.312 28.365,-23.764 c -2.723,-7.22 -4.752,-14.773 -6.027,-22.584 l -0.025,0.024 -36.433,-6.395 0,-25.781 36.433,-6.397 0.025,0.024 c 1.275,-7.81 3.304,-15.363 6.027,-22.583 l -28.365,-23.763 12.891,-22.313 34.736,12.669 0.025,0.074 c 4.962,-6.051 10.507,-11.615 16.555,-16.581 l -0.049,-0.024 -12.669,-34.736 22.313,-12.89 23.739,28.363 0,0.026 c 7.225,-2.728 14.789,-4.775 22.608,-6.052 l -0.025,-0.025 6.396,-36.433 25.757,0 6.396,36.433 -0.025,0.025 c 7.818,1.273 15.384,3.304 22.609,6.026 l 23.763,-28.364 22.313,12.891 -12.693,34.736 c 6.035,4.952 11.576,10.497 16.531,16.531 l 34.76,-12.669 12.867,22.313 -28.34,23.763 c 2.723,7.221 4.775,14.772 6.051,22.583 l 36.433,6.373 0,25.781 -36.433,6.395 c -1.276,7.804 -3.331,15.346 -6.051,22.559 l 28.34,23.765 -12.867,22.312 -34.76,-12.67 C 86.805,-9.514 81.264,-3.969 75.229,0.984 L 87.922,35.72 65.609,48.61 41.846,20.246 c -7.225,2.723 -14.791,4.753 -22.609,6.027 l 0.025,0.025 -6.396,36.433 -25.757,0 z"
             inkscape:connector-curvature="0"
             id="path22"
             style="fill:#c33b3e;fill-opacity:1;fill-rule:nonzero;stroke:none" /></g></g></g></g></svg>